<svg xmlns="http://www.w3.org/2000/svg" width="1297" height="846" version="1.0"><path d="M660.5 411.25c4.95-2.42 10.207-5.434 11.682-6.697l2.681-2.297.692-30.101.691-30.101-2.373-.78c-1.305-.43-12.172-.99-24.148-1.248-18.92-.405-22.1-.254-24.25 1.155L623 342.802v57.471l7.912 5.18c8.895 5.824 17.38 10.33 19.305 10.25.706-.028 5.333-2.032 10.283-4.453zm-83.166-3.744c1.737-2.319 2.632-5.166 3.123-9.936 1.32-12.816 6.603-19.17 16.016-19.261 8.184-.08 9.928 2.071 10.309 12.718.162 4.526.498 9.192.748 10.369.521 2.464 2.922 3.669 5.61 2.815 1.763-.559 1.86-2.286 1.86-32.966V338.87l2.25-1.592c1.238-.875 5.4-2.588 9.25-3.806 6.117-1.936 9.208-2.215 24.5-2.215 18.633 0 24.71 1.125 30.443 5.634l2.557 2.01.015 31.678c.008 17.422.41 32.3.893 33.062.589.93 1.757 1.165 3.55.715 3.599-.903 5.542-5.836 5.542-14.068 0-5.199.408-6.94 2-8.532 2.897-2.897 11.289-2.739 17.08.323 5.099 2.697 3.814 7.295 4.783 17.574 1.053 11.17 8.893 12.738 11.75 4.005 3.705-2.155 1.747-30.38 2.84-76.902l1.725-73.5 4.484-25c3.162-17.628 4.979-25.47 6.161-26.596.922-.877 19.902-18.016 42.177-38.086 29.001-26.13 45.134-41.506 56.82-54.154l16.32-17.664 4.68-.072c2.574-.04 13.101-.409 23.394-.82l18.715-.746 8.469-4.196c6.07-3.008 10.801-6.388 16.702-11.931 9.016-8.472 15.9-16.621 15.9-18.825 0-1.196-8.369-1.41-55.25-1.41-60.889.001-57.323-.324-70.6 6.435-11.935 6.076-14.745 16.352-9.952 36.388 2.015 8.42 2.087 9.578.75 11.962-2.206 3.928-52.47 42.992-57.108 44.381-5.047 1.512-6.32.865-17.34-8.819-8.78-7.715-26.906-21.456-35.075-26.59-8.201-5.155-9.944-7.803-14.802-22.498-5.523-16.707-8.73-28.277-8.113-29.275 1.46-2.363 7.881-3.984 15.784-3.984 6.955 0 8.606-.297 9.123-1.643.346-.904.502-1.772.345-1.928-.157-.157-7.03-.586-15.274-.952C675.558 56.569 668 55.43 668 53.845c0-1.504 7.262-1.901 22.5-1.23 13.2.582 15.6.96 20 3.151 4.848 2.414 5.01 2.634 5.305 7.24.489 7.623 1.854 5.486 2.554-4 1.342-18.167-5.412-38.654-14.588-44.248-3.51-2.14-14.126-2.854-15.256-1.026-.332.537-.864 3.178-1.183 5.868-.549 4.633-1.05 5.322-9.47 13.009-13.13 11.986-15.628 12-25.563.135l-6.27-7.488-8.764-.5c-8.151-.465-8.787-.658-9.085-2.75l-.32-2.25H682v-2.89c0-1.588-.787-3.837-1.75-4.996-1.69-2.034-2.59-2.109-26.25-2.163-22.398-.05-25.1.13-31.5 2.11-3.85 1.192-9.038 3.198-11.529 4.458l-4.529 2.29-6.826 45.346c-3.754 24.94-7.066 46.615-7.36 48.168-.405 2.138-3.592 5.272-13.146 12.928-6.935 5.558-16.354 13.415-20.93 17.46-4.575 4.044-10.086 8.522-12.245 9.95l-3.925 2.598-4.755-2.394c-6.856-3.452-54.09-40.645-55.788-43.928-1.27-2.458-1.205-3.634.594-10.6 4.206-16.285 3.57-25.271-2.258-31.91-3.443-3.92-7.31-6.13-17.334-9.903l-6.707-2.524h-54.881c-30.185 0-54.88.337-54.877.75.011 2.277 5.378 8.91 14.469 17.88 8.071 7.966 11.907 10.943 17.946 13.927 7.425 3.67 8.153 3.822 21.88 4.556 7.81.417 18.558.788 23.883.823l9.683.064 16.817 18.067c11.868 12.75 29.105 29.143 58.563 55.697 22.96 20.697 41.948 38.33 42.195 39.183.556 1.916 4.911 25.29 7.042 37.789 1.144 6.71 1.95 24.212 2.947 64 .755 30.12 1.156 56.13.89 57.799-.265 1.669-.006 11.972.577 22.897 1.198 22.445 1.589 23.568 8.208 23.568 3.114 0 4.23-.582 6.23-3.25zM541 356.015c7.867-3.946 10.894-8.867 11.96-19.44 1.026-10.17.107-65.684-1.126-68.069-1.647-3.186-5.355-2.15-7.168 2-1.999 4.578-3.609 11.638-3.642 15.97-.037 4.987-8.849 34.09-12.285 40.581-1.69 3.19-6.362 10.166-10.384 15.5-7.062 9.367-7.247 9.754-5.4 11.306 1.844 1.549 8.624 3.184 18.045 4.353 3.636.45 5.556.028 10-2.201zm229 1.051c5.522-.922 13-3.424 13-4.349 0-.54-3.122-5.21-6.937-10.376-3.816-5.166-8.281-11.799-9.923-14.74-3.897-6.975-10.907-30.755-12.668-42.97-.763-5.293-2.13-11.48-3.038-13.75-1.398-3.493-2.091-4.125-4.524-4.125-2.285 0-3.024.561-3.618 2.75-.41 1.512-.757 18.5-.77 37.75-.022 34.349.02 35.074 2.205 39 3.382 6.072 4.586 7.288 9.368 9.458 4.172 1.892 10.593 2.406 16.905 1.352zm39.5-10.456c1.65-.61 4.463-2.2 6.25-3.533 5.178-3.86 4.507-6.755-3.312-14.306-3.61-3.484-7.937-8.333-9.617-10.775-6.69-9.725-17.202-35.044-19.818-47.74-.68-3.3-2.287-8.079-3.57-10.62-6.4-12.667-17.837-13.288-19.9-1.08-.377 2.234.428 10.581 2 20.72 2.169 14.004 3.512 19.346 7.666 30.48 8.453 22.656 12.934 30.235 20.497 34.668 5.006 2.934 14.847 4.02 19.804 2.186zm-307-.757c8.64-4.015 14-12.408 22.866-35.803 4.848-12.793 9.634-36.667 9.634-48.06 0-9.034-3.47-13.168-9.871-11.762-5.339 1.172-13.048 11.995-13.107 18.401-.064 6.874-13.912 40.338-20.805 50.276-1.66 2.393-5.988 7.32-9.617 10.95-3.63 3.63-6.6 7.386-6.6 8.349 0 2.523 5.546 7.332 9.829 8.521 5.628 1.563 13.24 1.188 17.671-.872zm346.16-18.032c5.823-3.55 5.413-5.079-4.333-16.2-4.855-5.54-9.803-11.288-10.996-12.773-4.447-5.535-15.096-24.992-20.153-36.82-8.813-20.615-11.062-23.272-19.69-23.272-6.125 0-6.913 1.776-6.187 13.937.708 11.862 3.635 20.792 12.634 38.55 11.075 21.852 18.776 31.607 28.548 36.157 6.484 3.02 15.604 3.21 20.178.421zm-381.58-.544c9.158-4.772 17.783-16.235 28.84-38.33 7.315-14.622 10.956-26.132 11.735-37.108.747-10.526-.457-13.083-6.16-13.083-8.892 0-10.653 2.069-20.011 23.5-3.362 7.7-7.926 16.925-10.142 20.5-2.216 3.575-5.179 8.525-6.584 11-1.405 2.475-7.326 9.883-13.157 16.461-5.83 6.579-10.601 12.27-10.601 12.647 0 .376 1.59 2.081 3.535 3.788 3.27 2.872 4.074 3.1 10.75 3.057 5.595-.036 8.243-.582 11.795-2.432zm-33.137-15.68c4.69-1.36 6.003-2.401 11.786-9.341 5.984-7.182 10.121-13.575 19.657-30.37 8.14-14.339 8.786-15.793 11.585-26.11 2.236-8.243 2.578-14.125.994-17.086-1.464-2.735-6.68-2.492-11.11.518-4.002 2.72-12.718 15.347-18.414 26.677-5.784 11.507-8.845 15.4-23.633 30.057-8.242 8.17-13.808 14.464-13.808 15.615 0 6.361 14.202 12.576 22.943 10.04zm441.008-1.788c2.998-1.035 6.035-2.681 6.75-3.658 3.096-4.235 1.8-6.375-12.956-21.398-14.397-14.657-14.885-15.325-27.552-37.757-7.883-13.961-14.858-20.569-21.15-20.037-3.26.275-3.567.59-4.162 4.28-.765 4.747 2.967 21.334 6.252 27.785 2.649 5.203 11.952 21.463 16.151 28.232 6.32 10.186 15.947 21.699 19.324 23.11 4.538 1.896 10.822 1.694 17.343-.557zm30.568-17.392c3.336-1.514 9.002-7.516 10.782-11.422 1.046-2.295.8-2.815-2.828-5.97-2.185-1.902-6.22-4.602-8.964-6.002-6.674-3.403-16.84-13.372-27.295-26.767-12.733-16.313-23.164-28.193-27.222-31.006-4.892-3.39-8.444-3.297-9.795.256-3.977 10.458-2.247 17.145 8.57 33.122 12.645 18.68 24.376 34.083 29.686 38.978 8.494 7.83 20.567 11.76 27.066 8.81zm-501.248-1.082c7.688-3.161 13.407-8.016 21.077-17.891 9.322-12.003 26.49-37.116 28.697-41.979 2.145-4.724 2.565-13.66.871-18.519-3.327-9.545-12.606-2.263-37.344 29.31-10.782 13.761-18.984 22-26.072 26.185-8.566 5.06-13.5 9.197-13.5 11.321 0 2.73 5.997 10.022 9.984 12.142 4.638 2.465 9.307 2.302 16.287-.569zm611.229-16.1c35.127-1.898 45.12-3.612 68-11.663 19.823-6.976 39.5-17.653 39.5-21.435 0-1.163-11.99-1.381-75.845-1.381H971.31l-5.905 3.82c-7.762 5.021-14.51 12.668-18.871 21.385-5.826 11.645-7.475 10.817 21.216 10.657 13.613-.077 35.1-.698 47.75-1.382zm-663.5.243c0-.703-1.572-4.558-3.493-8.567-3.813-7.957-11.931-17.26-19.348-22.173l-4.502-2.982H170.626l2.918 3.046c3.714 3.876 16.13 11.053 25.614 14.807 19.748 7.816 36.697 12.206 54.342 14.078 28.326 3.004 98.5 4.28 98.5 1.79zm580.854-9.253c3.09-2.6 9.118-11.816 9.136-13.969.005-.55-2.354-2.303-5.241-3.895-6.215-3.428-22.038-14.471-33.249-23.205-8.785-6.843-13.293-11.341-18.894-18.85-4.32-5.792-12.34-12.113-16.54-13.035-1.627-.358-3.909-.134-5.09.498-1.917 1.026-2.071 1.69-1.47 6.317 1.473 11.35 8.796 21.63 32.716 45.926 16.303 16.56 23.443 21.813 30.583 22.5 4.13.396 5.234.082 8.05-2.287zm-557.003.998c5.722-2.485 15.14-10.703 28.2-24.605 22.262-23.698 27.766-31.757 28.696-42.013.505-5.566.42-5.835-2.146-6.81-5.442-2.07-13.817 3.862-24.315 17.219-5.893 7.497-18.475 17.637-37.891 30.536-7.208 4.788-13.934 9.19-14.947 9.782-1.751 1.022-1.709 1.303.856 5.68 1.484 2.532 4.213 6.21 6.065 8.174 2.885 3.058 3.995 3.564 7.75 3.53 2.41-.02 5.889-.693 7.732-1.493zm378.139-18.784c3.978-8.773 4.973-9.45 10.823-7.353 7.484 2.682 8.586 2.327 15.638-5.044l6.423-6.714 7.313-.393c8.113-.436 9.887-1.448 12.903-7.356 2.079-4.074 2.432-4.242 12.41-5.899 3.85-.64 7.717-1.79 8.594-2.557.877-.767 2.142-3.842 2.81-6.833 1.36-6.073 1.33-6.054 11.335-7.032 3.707-.362 6.973-1.035 7.257-1.495.284-.46.8-3.542 1.145-6.85l.629-6.012 7.33-.687c4.032-.377 8.111-1.257 9.066-1.955.954-.698 2.718-3.91 3.919-7.136l2.184-5.867 6.08-.5c3.657-.3 6.716-1.136 7.675-2.095.902-.902 2.05-4.806 2.647-9 1.472-10.341 2.422-11.545 9.784-12.4l6.045-.701v-5.82c0-6.484.655-8.981 2.357-8.99 2.54-.012 8.665-2.159 10.016-3.51 1.073-1.073 1.302-2.979.896-7.455l-.545-6.013 5.888-2.65c6.628-2.981 9.388-5.046 9.388-7.021 0-1.1-6.034-1.334-33.25-1.285l-33.25.059-57.5 52.644-57.5 52.644-.616 6.046c-.338 3.326-1.981 12.572-3.65 20.547-3.449 16.474-3.353 21 .442 21 2.038 0 2.93-1.06 5.314-6.317zm-205.657 5.65c1.476-1.476.49-10.004-2.833-24.474-1.925-8.385-3.533-16.846-3.572-18.802-.07-3.4-2.624-5.889-57.75-56.28L426.5 101.81l-32.691-.027c-22.65-.019-32.899.31-33.368 1.069-.996 1.61 1.601 3.779 8.728 7.287l6.331 3.117-.296 6.556c-.334 7.369.328 8.146 8.296 9.732l4 .796.84 7.16.839 7.16 4.66.632c8.88 1.204 9.425 1.925 10.745 14.197.393 3.65 1.302 6.758 2.193 7.5.838.697 4.489 1.492 8.114 1.767 5.62.426 6.634.794 6.89 2.5.166 1.1 1.26 4.138 2.43 6.75 2.381 5.308 5.325 6.734 13.922 6.744 5.207.006 5.828.93 5.853 8.697.008 2.305.444 4.456.969 4.78.525.325 4.59 1.12 9.032 1.768l8.078 1.178 1.573 5.541c.866 3.048 2.212 6.212 2.993 7.031.791.83 5.054 2.009 9.636 2.663 8.602 1.23 8.423 1.115 13.06 8.348 2.167 3.382 2.494 3.518 9.735 4.035 8.159.583 10.813 1.943 15.023 7.693 1.328 1.815 3.922 4.258 5.764 5.429l3.35 2.129 5.414-2.245c2.979-1.234 6.104-1.98 6.946-1.657.842.323 2.229 2.282 3.081 4.352 3.66 8.888 4.573 10.264 6.807 10.264 1.22 0 2.52-.3 2.886-.667zm412.368-15.293c3.947-2.406 6.517-7.151 6.108-11.277-.245-2.464-.931-3.3-3.309-4.027-6.042-1.848-18.316-7.1-31-13.262-12.92-6.278-14.88-7.69-32.732-23.58-3.702-3.297-7.977-6.643-9.5-7.438-9.632-5.024-12.754 3.35-5.187 13.917 5.26 7.345 35.418 31.525 50.984 40.877 9.965 5.986 11.813 6.75 16.335 6.746 3.293-.002 6.235-.695 8.301-1.956zm-606.685-1.835c10.689-6.255 21.236-13.674 34.208-24.06 21.773-17.433 28.414-26.348 24.74-33.21-2.114-3.952-7.885-1.755-17.447 6.64-3.31 2.906-9.167 8.04-13.017 11.41-5.022 4.397-10.673 7.924-20 12.484-15.938 7.793-29.696 13.531-32.443 13.531-1.754 0-2.056.626-2.05 4.25.007 4.711 2.537 9.374 6.183 11.397 1.27.705 4.792 1.298 7.826 1.318 4.616.03 6.574-.584 12-3.76zm784.984-6.76c3.575-.77 9.655-3.019 13.51-4.996 8.02-4.111 25.645-16.33 26.251-18.199.323-.994-18.337-1.25-91.057-1.25h-91.463l-3.563 4.25c-1.96 2.337-6.305 7.171-9.658 10.741-4.008 4.268-5.997 7.18-5.808 8.5.285 1.99 1.004 2.01 77.788 2.183 63.216.141 78.698-.085 84-1.229zm-822-.932c0-1.75-2.744-5.454-9.25-12.488l-9.25-10.002-91.75-.011c-50.462-.006-91.75.201-91.75.461s4.826 3.892 10.725 8.07c12.057 8.542 22.226 13.735 30.074 15.36 3.581.741 30.576 1.097 83.25 1.097H317zm662.27-18.51c3.293-2.591 5.304-6.217 6.252-11.271.633-3.374.46-3.789-1.979-4.716-1.47-.559-4.702-1.016-7.182-1.016-10.341 0-37.06-12.387-51.162-23.72-8.278-6.652-18.554-12.28-22.423-12.28-3.657 0-3.776.112-3.776 3.54 0 4.455 2.625 9.633 7.938 15.66 6.225 7.06 30.416 24.08 42.757 30.082 9.76 4.746 11.457 5.249 18.767 5.56 7.048.3 8.38.073 10.808-1.839zm-633.692-3.89c15.9-7.851 38.555-24.572 44.814-33.073 6.919-9.399 7.443-16.04 1.265-16.04-3.343 0-6.546 1.86-27.81 16.156-20 13.446-32.754 18.99-47.347 20.58-6.351.693-7.031.985-7.336 3.143-.493 3.482 2.601 10.791 5.55 13.11 2.088 1.643 4.055 2.011 10.749 2.011 7.98 0 8.504-.153 20.115-5.887zm833.07-11.135c9.416-.995 12.791-2.15 25.672-8.783 11.67-6.011 15.68-9.661 15.68-14.272v-2.923h-204.987l-3.1 4.25c-1.704 2.337-4.149 6.307-5.432 8.82-1.283 2.514-3.95 5.664-5.928 7-2.425 1.64-3.507 3.08-3.324 4.43.269 1.982 1.072 2.001 87.271 2.117 47.85.064 90.217-.223 94.148-.639zM297 194.338c0-1.672-1.05-3.068-3.399-4.52-1.915-1.183-4.274-3.946-5.405-6.331-1.104-2.327-3.402-6.144-5.108-8.481l-3.1-4.25H73.783l.654 2.75c.36 1.512 1.46 3.875 2.445 5.25 2.67 3.727 25.198 14.804 33.618 16.53 5.772 1.183 22.75 1.438 96.75 1.453l89.75.017zm24.797-10.2c6.774-1.658 27.24-11.606 36.203-17.597 3.025-2.022 8.785-6.683 12.8-10.357 7.202-6.592 7.295-6.74 7-11.202-.436-6.579-2.161-7.23-9.95-3.758-13.675 6.098-17.506 8.007-21.587 10.756-7.998 5.388-17.252 8.513-34.616 11.691-9.27 1.697-17.763 3.085-18.875 3.085-1.705 0-1.93.462-1.433 2.947 1.14 5.694 3.485 9.817 7.195 12.646 3.128 2.386 4.835 2.896 10.356 3.094 3.635.13 9.443-.457 12.907-1.304zm673.305-1.67c3.463-2.333 7.157-8.082 8.272-12.872.61-2.62.51-2.678-6.627-3.823-28.612-4.59-38.913-7.595-48.386-14.113-4.852-3.338-25.88-12.904-28.366-12.904-2.559 0-3.995 2.136-3.995 5.942 0 3.104.945 4.455 7.633 10.908 9.163 8.842 15.955 13.354 31.867 21.168 13.717 6.737 17.982 7.923 28.602 7.958 6.29.02 8.188-.37 11-2.265zm220.398-24.191c10.336-3.063 16.507-5.743 22.124-9.607 4.694-3.23 8.366-8.128 8.372-11.17 0-1.663-5.684-1.74-109.706-1.5l-109.71.255-2.253 3.343c-2.598 3.855-6.264 13.168-7.05 17.907l-.539 3.25 95.381-.053 95.381-.053zM278 160.383c0-1.871-5.667-17.058-7.605-20.378l-2.48-4.25H157.958c-80.131 0-109.958.302-109.958 1.114 0 2.893 4.892 9.256 9.619 12.512 2.899 1.997 10.3 5.342 16.56 7.486l11.321 3.876 96.25.006c52.938.003 96.25-.162 96.25-.366zm722.939-7.593c8.815-4.97 12.061-8.965 12.061-14.84v-2.904l-12.25-.558c-18.862-.858-36.39-5.246-53.584-13.413-6.325-3.005-10.354-4.335-12.5-4.127-3.024.293-3.18.523-3.473 5.121-.441 6.905 3.05 12.474 10.752 17.153 15.585 9.467 31.373 14.994 45.907 16.07 7.202.532 7.965.386 13.087-2.502zm-684.052 1.42c10.283-2.23 15.943-4.347 27.403-10.247 12.022-6.188 16.973-10.758 18.73-17.286 2.748-10.202-1.322-11.994-13.85-6.097-19.442 9.152-34.39 12.983-54.67 14.014l-13 .661.143 3.209c.234 5.246 3.905 9.94 10.781 13.786 7.135 3.99 12.959 4.456 24.463 1.96zM304 126.121c22.127-5.843 43.25-14.247 44.59-17.741.27-.704.034-2.482-.524-3.952l-1.016-2.672h-80.32l.508 7.089c.587 8.215 3.846 13.92 9.745 17.058 4.323 2.299 18.699 2.415 27.016.219zm-41.007.426c0-.71-2.817-6.466-6.25-12.791l-6.243-11.5-111.75-.254c-91.362-.208-111.75-.017-111.75 1.05 0 2.346 9.64 12.128 15.298 15.525 3.043 1.826 8.833 4.526 12.867 6l7.335 2.679 100.25.29c81.368.236 100.249.048 100.243-1zm972.725-1.328c9.256-2.493 19.275-8.27 25.994-14.99 3.458-3.458 6.288-6.781 6.288-7.385 0-.79-31.318-1.026-112.25-.842l-112.25.254-6.309 12.25-6.309 12.25 99.81-.066c82.439-.054 100.716-.31 105.026-1.471zm-215.75-1.089c4.3-3.62 6.945-9.245 7.689-16.362l.628-6.012h-40.536c-36.04 0-40.602.175-41.142 1.582-1.178 3.07-.579 5.295 1.964 7.295 3.237 2.546 17.397 7.99 32.737 12.585 10.64 3.188 12.981 3.538 23.673 3.538 11.35 0 12.001-.114 14.986-2.626zm22.055-36.65c3.588-1.223 9.438-4.311 13-6.863 7.547-5.404 18.935-16.932 21.35-21.611l1.678-3.25h-116.86l-3.132 5.549c-3.5 6.2-15.95 19.717-22.067 23.957-2.196 1.521-3.992 3.155-3.992 3.63 0 .475 23.288.852 51.75.838 50.833-.025 51.866-.065 58.273-2.25zM360 87.03c-7.338-5.521-20.574-19.892-23.506-25.522l-2.994-5.747-58.25-.003c-48.235-.002-58.25.23-58.25 1.348 0 3.828 14.838 19.012 24.814 25.394 11.627 7.437 9.945 7.261 68.911 7.209l52.775-.047zm884 .233c19.68-3.951 37.556-16.63 40.54-28.757l.677-2.75H1097.07l-3.673 3.225c-2.02 1.773-6.736 6.892-10.48 11.375-3.745 4.483-9.52 10.12-12.834 12.526-3.314 2.406-6.038 4.711-6.054 5.124-.016.412 39.009.708 86.721.656 67.051-.073 88.226-.39 93.25-1.399zm-1015.398-.794c-6.443-4.92-12.498-10.402-15.147-13.713-1.54-1.925-5.747-6.538-9.35-10.25l-6.551-6.75H10v2.099c0 9.165 16.019 22.23 35 28.546 5.146 1.713 11.321 1.845 96 2.056l90.5.225zM669 35.756c3.774-3.774 1.316-9.451-4.586-10.59-5.42-1.045-9.17 5.262-6.001 10.097 2.086 3.184 7.638 3.442 10.587.493z"/><path d="M631.59 833.04c-2.97-4.71 1.16-31.959 1.662-37.226 1.53-16.1 2.798-30.038 3.327-30.062 11.666-.54 22.076-.046 33.124.055.205.002.466.07.639.27l3.985 32.372c3.058 20.88 3.686 33.267 3.117 34.387-.807 1.587-2.953 2.237-22.193 2.208-13.516-.021-22.07-.627-23.66-2.003zm10.63-7.028c3.34-7.993 2.564-25.124-1.313-29.001-1.435-1.435-1.765-1.388-3.68.524-1.842 1.84-2.144 3.505-2.435 13.412-.25 8.5.049 12.22 1.2 14.975 1.946 4.658 4.305 4.692 6.228.09zm15.286-.94c1.694-4.889 1.842-18.51.262-24.134-1.7-6.044-4.413-6.556-7.167-1.352-2.09 3.945-1.818 22.639.388 26.812 2.285 4.323 4.732 3.825 6.517-1.326zm13.82.764c3.186-7.472 1.682-28.122-2.156-29.594-5.223-2.188-6.421 18.946-3.976 30.094 1.765 4.32 4.16 4.124 6.132-.5zm-59.834 5.742c-2.23-1.178-3.883-2.917-4.28-4.502-.68-2.702-.104-4.49 1.442-4.49.502 0 2.857-1.372 5.235-3.048 2.643-1.862 4.963-2.802 5.969-2.416 3.548 1.361 3.345 13.548-.258 15.477-2.552 1.365-3.917 1.194-8.108-1.021zm74.003-.242c-.431-4.18.496-11.454 1.608-12.608 1.094-1.136 2.182-.666 6.665 2.877 6.88 5.44 6.916 7.13.175 8.46-2.85.561-5.512 1.358-5.916 1.77-1.123 1.145-2.388.896-2.532-.5zm16.116-9.378c-8.306-5.492-13.987-11.332-13.987-14.38 0-2.413.907-2.922 13.25-7.435 25.738-9.41 33.303-12.56 38.25-15.93 6.903-4.702 10.712-8.91 9.924-10.965-.964-2.512-4.226-2.024-12.287 1.84-10.64 5.098-22.915 9.234-37.297 12.565-6.964 1.613-13.151 2.933-13.75 2.933-1.36 0-1.407-6.317-.083-11.086.548-1.971 2.752-5.487 4.899-7.812 2.146-2.325 4.958-6.666 6.248-9.648 1.29-2.98 2.663-5.428 3.05-5.437.872-.021 2.783 6.674 2.79 9.778.004 1.263 1.11 3.4 2.46 4.75 3.432 3.431 12.197 3.548 15.255.205 3.707-4.055 5.147-8.262 5.868-17.144.756-9.317 1.917-11.606 5.888-11.606 3.073 0 3.835 2.346 2.106 6.484-.775 1.855-1.72 5.856-2.098 8.891-.645 5.16-.51 5.685 2.065 8.072 2.314 2.144 3.71 2.553 8.726 2.553 5.579 0 6.22-.25 9.762-3.791 3.074-3.074 4.028-4.997 5.045-10.162.69-3.504 2.08-7.198 3.09-8.21 3.875-3.873 13.853-1.175 19.213 5.196 3.377 4.012 3.459 9.637.242 16.546-3.85 8.267-6.17 9.495-17.347 9.183-8.86-.246-9.545-.12-11.35 2.098-1.256 1.547-1.92 3.91-1.92 6.85 0 3.773.544 5.033 3.4 7.89 1.87 1.87 4.144 3.4 5.05 3.4 1.328 0 7.06 2.41 8.35 3.509.164.14-.001 1.448-.367 2.908-1.3 5.178-10.2 7.308-15.318 3.664-7.543-5.372-27.352-8.688-34.364-5.753-3.277 1.372-3.75 1.993-3.75 4.926 0 1.847.946 6.157 2.1 9.578 2.486 7.358 1.699 9.168-3.986 9.168-2.51 0-5.344-1.127-9.127-3.628zm-115.98.137c-1.387-1.672-.976-4.921 1.445-11.409 2.025-5.426 1.288-9.368-2.278-12.195-4.483-3.553-12.45-2.292-24.858 3.936-9.92 4.979-10.274 5.074-13.61 3.68-2.102-.878-3.9-2.573-4.65-4.386-1.403-3.389-.898-4.704 4.547-11.837 2.024-2.653 3.397-5.601 3.397-7.297 0-2.486-.778-3.234-6.16-5.923-3.387-1.693-7.405-3.078-8.928-3.078-1.77 0-4.057-1.215-6.34-3.368-3.288-3.101-3.572-3.823-3.572-9.1 0-10.093 4.657-15.532 13.298-15.532 3.486 0 5.705 1.874 10.777 9.102 1.255 1.788 2.784 2.332 7.512 2.674 7.534.545 9.932-1.206 12.824-9.363 2.018-5.69 2.23-5.913 5.593-5.913 3.432 0 3.518.102 4.648 5.5 2.532 12.083 5.358 21.536 7.162 23.953 4.34 5.811 15.176 6.445 17.897 1.047.693-1.375 1.266-5.102 1.275-8.282.018-7.301 1.756-8.33 6.427-3.803 5.102 4.945 7.403 10.584 8.414 20.617.497 4.932.61 9.298.254 9.702-1.08 1.222-26.84-6.035-38.58-10.868-17.75-7.307-19.055-7.751-20.802-7.08-2.848 1.092-.85 3.425 7.559 8.818 10.108 6.484 19.415 10.849 37.242 17.466 13.607 5.051 14.009 5.284 14.312 8.29.26 2.587-.232 3.425-3 5.114-1.821 1.111-4.845 2.31-6.718 2.663-1.874.354-5.886 2.38-8.916 4.503-4.502 3.154-6.371 3.86-10.221 3.86-2.955 0-5.173-.556-5.95-1.491zm141.993-2.266c0-1.516-.418-4.216-.93-6-.71-2.475-.621-3.243.374-3.243 1.533 0 10.294 4.767 11.07 6.024.564.91-7.363 5.976-9.352 5.976-.64 0-1.162-1.24-1.162-2.757zm-161.092-5.117l-2.314-1.874 3.126-3.126c2.147-2.147 4.09-3.126 6.203-3.126 3.77 0 3.886 1.345.54 6.268-2.86 4.21-4.234 4.547-7.555 1.858zm-47.615-27.528c-5.386-4.07-11.078-8.757-12.648-10.415l-2.856-3.013 5.356-.665c5.07-.63 5.873-.395 15.114 4.415 5.368 2.794 10.43 5.08 11.25 5.08.82 0 1.49.216 1.49.48 0 .742-7.004 11.52-7.487 11.52-.234 0-4.833-3.33-10.22-7.402zm251.207 3.233c-7.077-2.78-8.095-4.21-2.5-3.517 2.475.307 5.42.84 6.545 1.185 2.442.749 10.116-6.457 16.046-15.067l3.742-5.432h6.834c4.789 0 6.833.373 6.833 1.246 0 1.769-14.852 15.927-21.172 20.184-6.055 4.078-8.893 4.321-16.328 1.401zm-177.613-24.99c-2.931-4.117-3.335-12.48-.685-14.18 2.342-1.5 3.047-.466 3.266 4.793.11 2.674.903 5.298 1.948 6.452.968 1.07 1.602 2.76 1.41 3.758-.588 3.053-3.462 2.655-5.94-.823zm-102.137-1.496c-3.906-1.098-1.208-5.595 3.583-5.972 5.016-.395 10.316-2.849 11.687-5.41 2.387-4.46-1.695-13.692-7.366-16.665-2.216-1.161-6.575-1.779-14.654-2.075-13.16-.484-16.312-1.687-15.81-6.036.255-2.204 1.56-3.33 7.269-6.266 7.6-3.91 9.813-7.027 8.815-12.421-1.484-8.016-6.171-10.398-25.58-12.996-3.998-.536-5.135-1.18-6.747-3.824-1.095-1.795-1.94-4.99-1.943-7.336l-.004-4.155 7.836.537c9.763.67 14.604-.742 16.745-4.883 2.32-4.487.952-8.57-4.714-14.063-4.426-4.291-4.867-5.133-4.867-9.295 0-3.525.564-5.14 2.455-7.03 2.136-2.137 3.357-2.455 9.427-2.455 6.306 0 7.167.247 9.004 2.582 2.024 2.572 2.073 4.821.253 11.418-1.83 6.629 2.4 13 8.63 13 3.934 0 11.049-1.83 13.054-3.359.728-.554 2.244-2.813 3.37-5.02 1.924-3.77 2.13-3.899 3.427-2.126 2.81 3.844 1.708 7.202-4.585 13.967-6.64 7.138-7.475 9.217-6.83 17.012.323 3.874 1.224 6.4 3.22 9.016 5.3 6.95 10.187 6.661 15.635-.924 1.803-2.511 3.838-4.566 4.52-4.566 1.228 0 6.422 5.525 6.418 6.826 0 .37-1.064 5.061-2.361 10.424-3.536 14.614-2.23 17.523 8.29 18.477 3.34.303 6.073.922 6.073 1.376 0 1.256-3.568 2.897-6.3 2.897-1.34 0-4.764.968-7.612 2.152l-5.18 2.152-3.461-3.356c-4.388-4.253-11.393-15.139-19.533-30.354-3.503-6.549-6.974-12.511-7.713-13.25-1.692-1.693-5.892-1.754-6.47-.094-1.337 3.832 5.236 18.23 16.91 37.043 9.189 14.806 11.359 18.971 11.359 21.799 0 3.766-4.063 9.05-8.41 10.937-4.203 1.823-14.727 3.19-17.84 2.316zm219.739-2.595c-.247-.688-.115-3.5.293-6.25.663-4.461 1.01-5 3.23-5 2.328 0 2.478.309 2.322 4.796-.09 2.638-.708 5.45-1.372 6.25-1.48 1.784-3.867 1.892-4.473.204zm82.788-5.723c-5.785-3.527-5.722-11.229.163-20.027 5.6-8.375 23.702-45.018 23.36-47.292-.164-1.102-1.06-2.481-1.991-3.064-2.286-1.433-5.27 1.31-8.684 7.985-3.2 6.253-10.568 18.346-18.686 30.67l-6.062 9.2-6.5.292c-8.391.376-10.9-1.441-13.785-9.986-2.957-8.757-2.817-9.805 1.314-9.805 2.427 0 4.608 1.005 7.594 3.5 3.338 2.788 5.034 3.493 8.345 3.468 11.7-.09 14.64-15.404 4.45-23.176-4.374-3.336-6.6-8.117-4.794-10.293 1.917-2.31 4.9-1.793 8.652 1.5 2.825 2.48 4.286 3 8.43 3 4.136 0 5.442-.462 7.465-2.645 4.36-4.706 2.505-11.434-5.486-19.883-6.766-7.154-9.027-15.396-4.68-17.064.784-.301 4.443.66 8.13 2.134 8.806 3.523 10.513 2.802 13.367-5.647 3.156-9.347 5.024-10.894 13.148-10.894 5.295 0 7.38.472 10.075 2.283 2.905 1.952 3.44 2.931 3.68 6.75.236 3.725-.32 5.376-3.34 9.941-4.554 6.883-6.442 10.517-6.442 12.405 0 5.075 9.57 6.272 16.852 2.109 4.818-2.754 7.147-3.09 8.948-1.288 1.622 1.622 1.517 7.287-.197 10.602-2.643 5.11-4.49 5.946-14.103 6.383-13.824.628-19.991 4.604-21.208 13.674-.434 3.242-.136 4.656 1.324 6.271 1.736 1.922 2.566 2.033 10.565 1.408 7.946-.62 8.855-.502 10.75 1.392 2.049 2.049 2.755 7.12 1.46 10.493-1.17 3.047-6.948 4.876-13.158 4.165-3.153-.361-9.783-.912-14.733-1.224-8.176-.516-9.248-.37-11.715 1.58-1.494 1.18-3.18 3.814-3.745 5.851-3.05 10.982.254 16.414 10.703 17.596 7.146.809 9.825 2.68 8.195 5.726-1.597 2.983-5.137 3.883-15.253 3.879-7.366-.003-9.823-.393-12.408-1.969zm-48.596-4.777c.396-1.513.607-4.325.469-6.25-.138-1.925-.341-6.425-.45-10l-.2-6.5 3.395-.325c3.6-.343 5.056.89 5.1 4.325.035 2.56-7.243 21.486-8.264 21.494-.423.003-.445-1.232-.05-2.744zm-265.014-.917c-.367-.367-.667-1.77-.667-3.12 0-2.38.18-2.44 5.98-2.021 7.18.52 8.29 1.356 5.16 3.894-2.29 1.856-9.058 2.662-10.473 1.247zm75.94-5.915c-.978-2.548-.697-11.38.428-13.484 1.334-2.493 5.918-2.631 6.084-.184.204 3.011-.17 4.593-2.36 10-2.226 5.495-3.14 6.303-4.152 3.668zm267.893-4.136c-8.632-2.636-10.34-3.42-10.96-5.041-.98-2.552 1.07-3.622 7.749-4.047 7.44-.474 13.71 1.62 13.71 4.58 0 1.652-3.908 6.384-5.063 6.13-.24-.053-2.686-.783-5.436-1.622zm-283.27-21.453c-1.77-1.769-1.514-5.783.415-6.523 2.028-.778 4.547 2.37 4.143 5.176-.34 2.357-2.816 3.089-4.56 1.347zm-81.7-4.143c-.926-1.414-1.537-3.61-1.357-4.879.378-2.664 2.112-2.686 10.55-.131 3.416 1.033 5.438 2.255 5.842 3.528.86 2.71.392 2.95-6.902 3.535-6.088.488-6.543.374-8.133-2.053zm312.06-7.763c-2.755-3.273-2.937-3.855-1.983-6.342 1.533-3.994 7.83.354 9.003 6.217.586 2.929.424 3.202-1.896 3.202-1.604 0-3.487-1.13-5.125-3.077zm61.415-7.9c-1.282-.81-1.211-1.159.5-2.452 2.736-2.068 6.838-2.745 14.416-2.38 6.757.325 8.274 1.47 5.552 4.193-1.242 1.242-3.621 1.612-10.294 1.6-4.773-.008-9.352-.44-10.174-.96zm-319.678-7.614c-1.387-3.616 5.779-12.698 8.63-10.937 1.32.817 1.374 4.528.064 4.528-.54 0-1.898 1.8-3.02 4-2.108 4.13-4.606 5.191-5.674 2.409zm271.536-14.603c-2.298-3.227-1.75-5.99 1.31-6.594 2.678-.529 6.967 3.765 6.633 6.637-.47 4.02-5.07 3.995-7.943-.043zm-336.15-7.817c-4.092-3.22-5.845-9.262-5.507-18.989.35-10.062 1.597-11.04 7.353-5.766 3.423 3.137 3.718 3.879 4.428 11.126.629 6.426 1.213 8.239 3.387 10.507 3.863 4.033 3.384 5.133-2.24 5.133-3.36 0-5.655-.623-7.42-2.011zm401.32-10.74c.017-.412.692-1.623 1.5-2.69.827-1.095 1.467-4.082 1.467-6.85 0-5.862 2.164-10.828 6.196-14.22 3.763-3.167 6.534-3.176 7.97-.026 1.1 2.416.583 5.694-3.282 20.787l-.96 3.75h-6.462c-3.554 0-6.447-.338-6.43-.75zm-352.033-2.815c0-2.354 1.77-5.243 7.777-12.684 6.26-7.756 8.223-8.487 8.223-3.062 0 4.37-2.552 8.344-8.71 13.562-4.697 3.979-7.29 4.756-7.29 2.184zm299.223-11.991c-1.565-1.096-2.223-2.575-2.223-5 0-3.141.257-3.443 2.932-3.443 3.274 0 7.068 4.243 7.068 7.904 0 1.625-.624 2.096-2.777 2.096-1.528 0-3.778-.7-5-1.557zm-345.738-8.546c-7.913-4.174-11.148-8.873-9.386-13.635.58-1.568 2.016-2.228 6.056-2.784 10.128-1.393 14.859-10.024 9.926-18.113-1.22-2.002-3.534-3.755-6.398-4.849-3.747-1.43-4.75-2.403-6.084-5.898-.88-2.302-1.6-5.408-1.6-6.902 0-2.645.154-2.716 5.846-2.716 3.215 0 8.495.874 11.734 1.943 5.542 1.828 6 1.843 7.77.25 5.147-4.634 4.056-10.322-4.08-21.268-6.69-9.001-8.644-13.3-7.852-17.26.873-4.362 2.383-5.665 6.562-5.665 2.696 0 4.955.932 8.127 3.354 5.67 4.328 8.328 5.123 12.015 3.596 3.24-1.343 5.254-4.507 6.33-9.95 1.54-7.793 2.629-10 4.93-10 6.263 0 21.62 12.02 21.62 16.922 0 1.105-1.35 3.39-3 5.078-2.33 2.383-3 3.97-3 7.1 0 2.217.49 4.95 1.093 6.074 1.008 1.885 1.678 1.988 8.63 1.337 7.638-.716 9.218-.17 9.26 3.203.029 2.227-7.231 6.286-11.244 6.286-4.474 0-15.178 5.082-16.702 7.93-3.027 5.655.01 13.405 5.952 15.185 2.188.655 4.72 2.011 5.626 3.013 1.53 1.69 1.53 2-.002 4.338-.907 1.385-3.875 3.646-6.595 5.024-6.734 3.413-12.02 8.22-12.02 10.933 0 1.22 1.368 3.747 3.038 5.617 3.654 4.094 4.595 7.278 3.112 10.533-.936 2.053-1.81 2.427-5.667 2.427-2.603 0-6.262-.868-8.522-2.02-3.852-1.966-3.96-2.163-3.956-7.25.006-7.329 2.64-22.755 5.502-32.23 3.918-12.967 4.539-16.755 3.413-20.83-.72-2.61-1.57-3.67-2.943-3.67-3.553 0-3.775.576-14.453 37.5-7.578 26.202-9.294 29.5-15.356 29.5-2.033 0-5.49-.946-7.682-2.103zm387.326-3.647c-1.411-1.513-3.044-3.683-3.628-4.824-1.73-3.372-7.106-25.71-8.093-33.616-.501-4.02-2.302-11.055-4-15.633-1.7-4.577-3.09-9.124-3.09-10.104 0-2.517-4.693-7.281-6.766-6.868-1.367.272-1.662 1.183-1.397 4.32.325 3.855 8.672 55.87 9.637 60.054.37 1.606-.4 2.573-3.383 4.25-4.273 2.402-8.09 2.753-11.405 1.048-3.001-1.541-7.685-6.015-7.685-7.34 0-.6 1.913-1.977 4.25-3.063 3.752-1.743 4.286-2.41 4.558-5.682.449-5.406-1.096-7.409-8.654-11.215-7.477-3.765-9.487-5.608-8.981-8.235.379-1.966 3.516-3.094 9.022-3.243 2.346-.063 4.71-.973 6.477-2.493 5.08-4.37 2.987-13.991-3.762-17.281-1.325-.646-6.664-1.646-11.863-2.222-8.295-.92-9.796-1.39-12.255-3.85-1.54-1.54-3.207-4.214-3.702-5.94-1.434-5 .63-6.917 8.966-8.323 6.189-1.044 7.194-1.518 8.063-3.802 1.422-3.74.555-6.019-4.578-12.032-2.497-2.926-4.54-6.227-4.54-7.337 0-2.739 4.983-7.193 11.494-10.274 9.678-4.578 22.633-2.87 24.152 3.185.57 2.27.074 7.597-1.15 12.35-.393 1.526-.04 4.08.868 6.25 1.387 3.32 1.898 3.67 5.362 3.67 4.846 0 7.81-2.066 9.258-6.453 1.266-3.836 7.147-9.556 9.8-9.532 3.762.034 6.215 3.857 6.215 9.685 0 3.785-1.196 6.182-11.355 22.74-3.887 6.338-4.284 8.427-2.547 13.41.966 2.772 1.544 3.15 4.822 3.15 2.582 0 4.928-.912 7.652-2.972 4.865-3.682 9.63-4.005 11.872-.806 3.526 5.035 1.223 11.002-8.122 21.046-7.268 7.812-10.05 16.008-6.89 20.29 1.25 1.693 2.692 1.942 11.25 1.942 9.759 0 9.818.014 9.818 2.456 0 1.79-1.626 3.785-6 7.36-11.803 9.644-15.258 10.686-19.69 5.934zm-333.64-13.426c.242-1.708 1.08-2.41 3.159-2.648 2.46-.282 2.786-.021 2.5 2-.242 1.708-1.08 2.41-3.16 2.648-2.46.282-2.785.02-2.5-2zm-61.123-10.273c-2.59-2.757-2.163-5.551.848-5.551 2.09 0 6.104 4.363 6.104 6.635 0 2.247-4.478 1.55-6.952-1.084zm405.952-.975c0-3.818 10.054-11.537 13.37-10.265 2.19.841 2.113 5.96-.12 7.893-1.56 1.348-9.42 3.796-12.193 3.796-.581 0-1.057-.64-1.057-1.424zm-337.428-19.148c-2.094-2.093-1.997-5.36.178-6.033.963-.298 3.1-1.098 4.75-1.778 5.348-2.205 7.806-.183 5.88 4.838-.681 1.773-5.412 4.545-7.76 4.545-.812 0-2.184-.707-3.05-1.572zm274.703-4.237c-.674-.428-1.35-1.884-1.5-3.235-.25-2.232.12-2.485 4.05-2.767 2.377-.172 4.965.221 5.75.872 1.9 1.578 1.813 4.576-.157 5.332-2.197.843-6.673.732-8.143-.202zm-333.272-10.808c-3.362-3.038-4.003-4.237-4.003-7.5 0-3.611.202-3.883 2.878-3.883 3.274 0 4.129.833 7.655 7.465 1.962 3.691 2.27 5.067 1.376 6.145-1.806 2.175-3.59 1.673-7.906-2.227zm389.997-9.905c0-.287 1.185-2.312 2.633-4.5 2.58-3.897 5.77-5.21 6.637-2.728.768 2.203-.423 3.787-4.353 5.792-4.001 2.041-4.917 2.309-4.917 1.436zm-318.597-10.872c-.876-2.281 1.038-4.227 6.03-6.134 5.564-2.125 9.968-1.664 10.36 1.083.49 3.418-3.21 5.775-9.816 6.253-4.84.35-6.065.126-6.574-1.202zm235.442-9.648c-4.24-4.459-4.86-7.345-1.91-8.923 4.676-2.503 12.333-.112 18.315 5.716 2.063 2.01 3.75 3.923 3.75 4.25 0 1.221-6.803 2.999-11.476 2.999-4.347 0-5.22-.407-8.68-4.042zm-230.16-6.354c-5.155-1.91-7.688-4.391-7.667-7.51.013-2.03 3.116-5.531 14.25-16.084 24.299-23.032 27.637-26.738 26.189-29.08-1.273-2.06-8.46-.262-13.835 3.462-2.817 1.951-10.972 9.242-18.122 16.2-14.193 13.815-17.613 16.398-21.715 16.404-3.507.005-4.382-1.744-6.26-12.516-2.856-16.374-1.74-25.115 3.692-28.92 3.517-2.463 6.708-1.858 12.19 2.314 7.2 5.478 8.774 6.126 14.88 6.126 7.057 0 11.822-3 13.136-8.268.764-3.064.357-5.507-2.365-14.197-4.48-14.303-3.297-16.623 6.24-12.256 3.72 1.703 6.093 3.617 7.693 6.206 3.545 5.735 11.36 8.135 17.453 5.358 2.235-1.018 2.83-.84 4.99 1.49 2.813 3.036 5.278 2.665 6.18-.93.328-1.307.099-7.469-.51-13.693-.606-6.224-1.104-13.39-1.104-15.925 0-4.565-.037-4.616-3.831-5.257-3.724-.629-9.59.981-14.67 4.027-7.177 4.305-13.997 7.467-15.15 7.025-2.222-.853-1.648-7.706.906-10.803 2.067-2.506 18.106-11.896 30.413-17.805l5.149-2.472.342-9.147c.369-9.887 2-13.369 6.246-13.338 4.023.03 4.846 1.566 6.233 11.63.956 6.934 1.86 10.225 3.05 11.105 1.08.796 9.659 1.769 15.614 3.23 15.055 3.696 22.334 6.682 22.739 8.95.637 3.565-6.5 4.822-19.77 1.89-10.278-2.27-13.696-.968-15.818.519-4.058 2.843-5.251 8.517-7.262 20.301-2.51 14.705-3.58 22.842 1.118 22.17 3.326-.475 4.497-4.261 5.2-16.81 1.566-7.686 4-15.622 7.64-17.197 9.403-4.656 11.489 33.733 12.834 43.822.023 13.588-.587 16.162-4.378 18.474-3.916 2.388-15.311 2.621-19.603.402-2.652-1.372-8.002-7.285-8.002-8.846 0-.36 4.256-.655 9.458-.655 14.693 3.008 19.773-8.343 14.662-23.25-.59-1.513-1.46-2.75-1.934-2.75-1.29 0-3.186 4.7-3.186 7.898 0 4.121-1.948 9.004-4.04 10.123-1.005.538-4.67.99-8.144 1.003-12.038.045-17.816 2.844-17.816 8.632 0 2.434 1.31 4.008 8.385 10.076 4.745 4.07 4.424 6.118-1.411 9.016l-4.526 2.248-7.211-1.998c-9.01-2.497-21.03-2.665-25.88-.363-3.526 1.673-6.357 5.763-6.357 9.186 0 1.785 4.867 7.216 9.5 10.6 2.666 1.948 1.316 4.138-4.953 8.038-5.647 3.512-14.67 4.44-20.863 2.145zm-57.102-5.032c-3.687-3.156-3.847-3.52-2.723-6.212 1.696-4.064 16.355-25.462 18.27-26.67.88-.555 2.395-.703 3.37-.329 1.516.582 1.698 1.59 1.263 7.007-.656 8.177-2.246 11.276-7.763 15.137-2.913 2.04-4.595 4.004-4.77 5.572-1.132 10.172-1.703 10.582-7.647 5.495zm351.105-1.218c-.378-.378-.688-2.833-.688-5.456 0-6.692-1.063-8.848-7.477-15.16-5.597-5.509-5.632-5.58-5.328-10.892.28-4.894.52-5.371 2.86-5.644 1.475-.172 3.705.607 5.276 1.843 3.308 2.602 10.132 12.485 12.827 18.578l1.974 4.463-3.37 6.142c-3.324 6.058-4.727 7.473-6.074 6.126zm-76.81-3.253c-2.324-1.881-2.33-1.931-.578-5.604 2.464-5.168 3.217-11.836 1.738-15.406-1.307-3.155-5.193-5.091-10.22-5.091-3.51 0-9.818 2.514-9.818 3.913 0 1.742 3.676 3.087 8.435 3.087 4.22 0 4.565.191 4.565 2.535 0 3.9-2.808 7.467-5.865 7.45-3.354-.02-4.866-1-7.01-4.544-1.557-2.575-2.192-2.824-6.673-2.625-3.63.161-6.02-.393-8.952-2.075-5.687-3.264-5.586-5.391.578-12.136 4.318-4.724 5.198-6.326 5.284-9.618.064-2.461-.522-4.576-1.555-5.609-1.775-1.776-2.31-1.802-16.807-.833-8.794.588-9.667.477-11.75-1.494-1.786-1.69-2.25-3.23-2.25-7.465 0-11.075-2.42-15.257-6.155-10.642-1.33 1.64-1.845 3.934-1.845 8.199 0 7.492 1.975 12.244 6.19 14.895 2.93 1.843 4.572 2.046 14.31 1.772 10.886-.307 11.004-.286 11.333 2.038.407 2.877-3.037 6.784-7.705 8.739-7.562 3.168-24.346.795-27.64-3.908-1.974-2.818-1.954-17.98.04-30.68.82-5.224 1.98-13.1 2.579-17.5 1.189-8.742 2.93-12.5 5.794-12.5 3.383 0 4.412 2.847 5.354 14.804.977 12.394 2.173 16.463 5 17.007 2.4.463 4.067-4.286 3.269-9.31-.35-2.2-1.04-8.5-1.531-14-1.305-14.57-1.944-15.896-8.674-18.014-5.236-1.646-6.158-1.653-15.4-.119-13.412 2.228-13.537 3.374-14.288.176 3.743-8.458 21.882-10.15 25.278-10.566 17.926-2.145 18.09-.858 18.09-14.088 0-8.294.554-7.698 2.05-8.89 3.153-2.508 8.086-.485 8.867 4.843.164 1.124.735 4.26.443 7.24-.583 5.937 1.17 12.695 3.64 14.038.826.448 7.788 3.77 15.472 7.38 7.684 3.612 14.997 7.53 16.25 8.707 2.656 2.495 2.92 5.015.72 6.841-1.296 1.076-2.345.908-6.25-1.002-8.261-4.043-15.348-6.046-21.393-6.046-7.876 0-10.22 2.225-11.1 10.54-.347 3.278-1.353 8.067-2.235 10.643-1.227 3.58-1.345 5.169-.5 6.75 2.558 4.777 6.037 1.144 6.037-6.302 0-8.65 3.574-13.631 9.778-13.631 5.378 0 8.222 2.29 8.222 6.622 0 4.805-1.544 7.29-5.58 8.976-3.836 1.602-4.164 2.515-1.766 4.913 1.23 1.23 2.57 1.482 5.232.982 5.119-.96 6.877-2.124 8.72-5.773 3.312-6.552 5.143-7.72 12.1-7.72 7.932 0 12.664 1.918 15.269 6.19 2.455 4.026 2.515 5.961.36 11.604-2.272 5.948-.726 16.693 3.128 21.746 2.402 3.149 3.097 3.46 7.739 3.46 5.043 0 5.18-.084 12.267-7.5 7.73-8.09 10.65-9.236 14.025-5.508 2.08 2.298 2.29 7.175.857 19.872-1.045 9.26-2.362 11.136-7.82 11.136-4.788 0-16.216-6.041-25.03-13.232-11.777-9.606-23.918-15.138-25.964-11.828-.923 1.494 5.315 7.932 13.463 13.895 17.827 13.046 21.466 17.432 18.84 22.71-1.043 2.099-3.33 3.44-10.34 6.067-10.253 3.843-15.225 4.24-18.623 1.49zm-186.056-7.133c-3.63-1.917-5.542-4.993-4.327-6.96.692-1.12 11.597-1.2 15.5-.115 3.08.857 3.683 3.423 1.565 6.656-2.015 3.075-7.376 3.252-12.738.42zm74.178-28.968c0-1.98-5.747-52.164-6.466-56.25-2.51-5.92 16.603-3.876 21.366-3.876 19.79 0 21.475.45 21.467 2.064-.007 1.486-1.592 15.478-5.01 51.312l-.644 6.75s-30.713 1.532-30.713 0zm8.117-12.343c.693-2.594-.547-14.927-1.688-16.773-.3-.486-1.487-.884-2.636-.884-1.992 0-2.061.363-1.486 7.815.674 8.752 2.116 13.544 3.895 12.95.654-.217 1.516-1.616 1.915-3.108zm19.34 1.593c1.237-3.222.71-18.528-.665-19.379-2.274-1.406-3.281 1.067-3.837 9.427-.65 9.752-.307 11.702 2.055 11.702.977 0 2.079-.788 2.448-1.75zm-10.082-2.375c.344-1.719.625-6.25.625-10.07 0-6.63-.102-6.93-2.25-6.625-2.12.301-2.25.785-2.25 8.32 0 8.096.694 11.5 2.344 11.5.498 0 1.188-1.407 1.53-3.125zm120.334 4.5c-1.117-1.116-.827-13.739.396-17.247 1.83-5.252 7.224-6.8 10.895-3.128 2.596 2.596 2.539 6.045-.158 9.473-1.186 1.509-3.1 4.607-4.25 6.885-1.973 3.907-5.143 5.757-6.883 4.017zm-248.551-6.218c-2.623-2.623-3.597-10.839-1.64-13.827 1.178-1.796 2.443-2.33 5.52-2.33 3.419 0 4.284.466 6.03 3.25 2.396 3.821 2.098 9.804-.638 12.827-2.204 2.436-6.876 2.476-9.272.08zm41.877-23.092c-1.738-3.248-1.176-5.834 2.069-9.53 7.198-8.199 14.546-.281 8.419 9.07-2.062 3.147-8.89 3.446-10.488.46z"/><g fill="none" stroke="#000" stroke-width="37.759"><path d="M664.34 507.519l-66.75 66.75 106.8 106.8-66.75 66.75"/><path d="M530.84 614.319l66.75 66.75 106.8-106.8 66.75 66.75"/></g></svg>